<svg width="86" height="34" viewBox="0 0 86 34" fill="none" xmlns="http://www.w3.org/2000/svg">
<path d="M15.08 33.816C13.128 33.816 11.256 33.464 9.464 32.76C7.672 32.056 6.056 31.016 4.616 29.64C3.208 28.232 2.088 26.488 1.256 24.408C0.424 22.328 0.00800008 19.896 0.00800008 17.112C0.00800008 14.392 0.424 11.992 1.256 9.912C2.088 7.832 3.208 6.088 4.616 4.68C6.056 3.272 7.672 2.216 9.464 1.512C11.288 0.775999 13.16 0.407999 15.08 0.407999C17 0.407999 18.856 0.759999 20.648 1.464C22.472 2.168 24.088 3.224 25.496 4.632C26.904 6.008 28.024 7.736 28.856 9.816C29.688 11.896 30.104 14.328 30.104 17.112C30.104 19.832 29.688 22.232 28.856 24.312C28.024 26.392 26.904 28.136 25.496 29.544C24.088 30.952 22.488 32.024 20.696 32.76C18.904 33.464 17.032 33.816 15.08 33.816ZM15.08 32.376C16.904 32.376 18.376 31.912 19.496 30.984C20.616 30.024 21.432 28.424 21.944 26.184C22.456 23.944 22.712 20.92 22.712 17.112C22.712 13.304 22.456 10.296 21.944 8.088C21.432 5.848 20.616 4.264 19.496 3.336C18.376 2.376 16.904 1.896 15.08 1.896C13.288 1.896 11.816 2.376 10.664 3.336C9.544 4.264 8.728 5.848 8.216 8.088C7.704 10.296 7.448 13.304 7.448 17.112C7.448 20.92 7.704 23.944 8.216 26.184C8.728 28.424 9.544 30.024 10.664 30.984C11.816 31.912 13.288 32.376 15.08 32.376ZM31.3696 33V31.992L32.3296 31.704C33.0016 31.48 33.4336 31.192 33.6256 30.84C33.8176 30.456 33.9136 29.928 33.9136 29.256V4.968C33.9136 4.328 33.8176 3.832 33.6256 3.48C33.4336 3.096 33.0176 2.792 32.3776 2.568L31.3696 2.28V1.272H43.2736V2.28L42.3616 2.568C41.7536 2.792 41.3376 3.096 41.1136 3.48C40.9216 3.864 40.8256 4.392 40.8256 5.064V31.56H47.8816C48.9696 31.56 49.7856 31.288 50.3296 30.744C50.8736 30.2 51.3856 29.416 51.8656 28.392L53.6416 24.408H54.9856L54.5056 33H31.3696ZM56.3908 33V31.992L57.2548 31.752C57.9588 31.56 58.5028 31.288 58.8867 30.936C59.3028 30.552 59.7188 30.04 60.1348 29.4L67.3348 18.312L59.3668 4.824C58.9828 4.184 58.6468 3.704 58.3588 3.384C58.0708 3.064 57.6068 2.792 56.9668 2.568L56.1508 2.28V1.272H68.7748V2.28L67.8148 2.52C67.1428 2.712 66.7748 3.048 66.7108 3.528C66.6468 4.008 66.8068 4.584 67.1908 5.256L71.9428 13.224L76.9348 5.304C77.3508 4.632 77.5748 4.04 77.6068 3.528C77.6708 2.984 77.3348 2.632 76.5988 2.472L75.7828 2.28V1.272H82.8868V2.28L81.7828 2.568C81.1108 2.728 80.5828 3 80.1988 3.384C79.8468 3.736 79.4788 4.232 79.0948 4.872L72.7588 14.664L81.4468 29.4C81.7988 30.04 82.1668 30.536 82.5508 30.888C82.9668 31.208 83.4788 31.48 84.0868 31.704L85.0468 31.992V33H71.8948V31.992L72.8548 31.8C73.5588 31.64 73.9588 31.304 74.0548 30.792C74.1828 30.28 74.0388 29.672 73.6228 28.968L68.1508 19.8L62.2948 29.016C61.8788 29.72 61.6868 30.328 61.7188 30.84C61.7828 31.352 62.1348 31.688 62.7747 31.848L63.3508 31.992V33H56.3908Z" fill="#f0f0f0"/>
</svg>
